Evangelion: 3.0 You Can (Not) Redo. (ヱヴァンゲリヲン新劇場版：Q Evangerion Shin Gekijōban: Kyū?, lit. Nueva versión cinematográfica de Evangelion: Q") es una película de anime dirigida por Kazuya Tsurumaki e Hideaki Anno, siendo este último el autor original de la serie de Evangelion.

(Fuente: es.wikipedia.org)


Es la 3.33 (Blu-ray) en calidad
1280x544

Format                                   : MPEG-4
Format profile                           : Base Media
Codec ID                                 : isom
File size                                : 1.32 GiB
Duration                                 : 1h 45mn
Overall bit rate mode                    : Variable
Overall bit rate                         : 1 789 Kbps
Encoded date                             : UTC 2013-04-23 10:10:08
Tagged date                              : UTC 2013-04-23 10:10:08

Video
ID                                       : 1
Format                                   : AVC
Format/Info                              : Advanced Video Codec
Format profile                           : High@L5.1
Format settings, CABAC                   : Yes
Format settings, ReFrames                : 4 frames
Codec ID                                 : avc1
Codec ID/Info                            : Advanced Video Coding
Duration                                 : 1h 45mn
Bit rate                                 : 1 594 Kbps
Maximum bit rate                         : 16.8 Mbps
Width                                    : 1 280 pixels
Height                                   : 544 pixels
Display aspect ratio                     : 2.35:1
Frame rate mode                          : Constant
Frame rate                               : 24.000 fps
Color space                              : YUV
Chroma subsampling                       : 4:2:0
Bit depth                                : 8 bits
Scan type                                : Progressive
Bits/(Pixel*Frame)                       : 0.095
Stream size                              : 1.18 GiB (89%)


Audio
ID                                       : 2
Format                                   : AAC
Format/Info                              : Advanced Audio Codec
Format profile                           : LC
Codec ID                                 : 40
Duration                                 : 1h 45mn
Bit rate mode                            : Variable
Bit rate                                 : 192 Kbps
Maximum bit rate                         : 201 Kbps
Channel(s)                               : 2 channels
Channel positions                        : Front: L R
Sampling rate                            : 48.0 KHz
Compression mode                         : Lossy
Stream size                              : 145 MiB (11%)
Title                                    : AAC 2.0
Language                                 : Japanese
Encoded date                             : UTC 2013-04-23 10:05:12
Tagged date                              : UTC 2013-04-23 10:10:17


Los subs son en español y van aparte en un .srt